<svg width="23" height="23" viewBox="0 0 23 23" fill="none" xmlns="http://www.w3.org/2000/svg">
<path d="M13.6326 1.8999H9.16757C8.17957 1.8999 7.37207 2.6979 7.37207 3.6859V4.5789C7.37207 5.5669 8.17007 6.3649 9.15807 6.3649H13.6326C14.6206 6.3649 15.4186 5.5669 15.4186 4.5789V3.6859C15.4281 2.6979 14.6206 1.8999 13.6326 1.8999Z" fill="#292D32"/>
<path d="M16.378 4.57901C16.378 6.08951 15.143 7.32451 13.6325 7.32451H9.16749C7.65699 7.32451 6.42199 6.08951 6.42199 4.57901C6.42199 4.04701 5.85199 3.71451 5.37699 3.96151C4.03749 4.67401 3.12549 6.0895 3.12549 7.71401V16.6535C3.12549 18.9905 5.03499 20.9 7.37199 20.9H15.428C17.765 20.9 19.6745 18.9905 19.6745 16.6535V7.71401C19.6745 6.0895 18.7625 4.67401 17.423 3.96151C16.948 3.71451 16.378 4.04701 16.378 4.57901ZM14.573 12.0935L10.773 15.8935C10.6305 16.036 10.45 16.1025 10.2695 16.1025C10.089 16.1025 9.90849 16.036 9.76599 15.8935L8.34099 14.4685C8.06549 14.193 8.06549 13.737 8.34099 13.4615C8.61649 13.186 9.07249 13.186 9.34799 13.4615L10.2695 14.383L13.566 11.0865C13.8415 10.811 14.2975 10.811 14.573 11.0865C14.8485 11.362 14.8485 11.818 14.573 12.0935Z" fill="#BCDD64"/>
</svg>
