<svg width="224" height="30" viewBox="0 0 224 30" fill="none" xmlns="http://www.w3.org/2000/svg">
<path d="M25.056 3.872L15.84 29H9.72L0.504 3.872H5.904L12.816 23.852L19.692 3.872H25.056ZM26.7817 18.956C26.7817 16.94 27.1777 15.152 27.9697 13.592C28.7858 12.032 29.8778 10.832 31.2458 9.992C32.6378 9.152 34.1858 8.732 35.8898 8.732C37.3778 8.732 38.6738 9.032 39.7778 9.632C40.9058 10.232 41.8058 10.988 42.4778 11.9V9.056H47.5538V29H42.4778V26.084C41.8298 27.02 40.9298 27.8 39.7778 28.424C38.6498 29.024 37.3418 29.324 35.8538 29.324C34.1738 29.324 32.6378 28.892 31.2458 28.028C29.8778 27.164 28.7858 25.952 27.9697 24.392C27.1777 22.808 26.7817 20.996 26.7817 18.956ZM42.4778 19.028C42.4778 17.804 42.2378 16.76 41.7578 15.896C41.2778 15.008 40.6298 14.336 39.8138 13.88C38.9978 13.4 38.1218 13.16 37.1858 13.16C36.2498 13.16 35.3858 13.388 34.5938 13.844C33.8018 14.3 33.1538 14.972 32.6498 15.86C32.1698 16.724 31.9298 17.756 31.9298 18.956C31.9298 20.156 32.1698 21.212 32.6498 22.124C33.1538 23.012 33.8018 23.696 34.5938 24.176C35.4098 24.656 36.2738 24.896 37.1858 24.896C38.1218 24.896 38.9978 24.668 39.8138 24.212C40.6298 23.732 41.2778 23.06 41.7578 22.196C42.2378 21.308 42.4778 20.252 42.4778 19.028ZM57.5162 12.152C58.1642 11.096 59.0042 10.268 60.0362 9.668C61.0922 9.068 62.2922 8.768 63.6362 8.768V14.06H62.3042C60.7202 14.06 59.5202 14.432 58.7042 15.176C57.9122 15.92 57.5162 17.216 57.5162 19.064V29H52.4762V9.056H57.5162V12.152ZM71.6389 24.86H80.5309V29H65.9149V24.932L74.6269 13.196H65.9509V9.056H80.4229V13.124L71.6389 24.86ZM102.973 18.596C102.973 19.316 102.925 19.964 102.829 20.54H88.2492C88.3692 21.98 88.8732 23.108 89.7612 23.924C90.6492 24.74 91.7412 25.148 93.0372 25.148C94.9092 25.148 96.2412 24.344 97.0332 22.736H102.469C101.893 24.656 100.789 26.24 99.1572 27.488C97.5252 28.712 95.5212 29.324 93.1452 29.324C91.2252 29.324 89.4972 28.904 87.9612 28.064C86.4492 27.2 85.2612 25.988 84.3972 24.428C83.5572 22.868 83.1372 21.068 83.1372 19.028C83.1372 16.964 83.5572 15.152 84.3972 13.592C85.2372 12.032 86.4132 10.832 87.9252 9.992C89.4372 9.152 91.1772 8.732 93.1452 8.732C95.0412 8.732 96.7332 9.14 98.2212 9.956C99.7332 10.772 100.897 11.936 101.713 13.448C102.553 14.936 102.973 16.652 102.973 18.596ZM97.7532 17.156C97.7292 15.86 97.2612 14.828 96.3492 14.06C95.4372 13.268 94.3212 12.872 93.0012 12.872C91.7532 12.872 90.6972 13.256 89.8332 14.024C88.9932 14.768 88.4772 15.812 88.2852 17.156H97.7532ZM114.284 29.324C112.652 29.324 111.188 29.036 109.892 28.46C108.596 27.86 107.564 27.056 106.796 26.048C106.052 25.04 105.644 23.924 105.572 22.7H110.648C110.744 23.468 111.116 24.104 111.764 24.608C112.436 25.112 113.264 25.364 114.248 25.364C115.208 25.364 115.952 25.172 116.48 24.788C117.032 24.404 117.308 23.912 117.308 23.312C117.308 22.664 116.972 22.184 116.3 21.872C115.652 21.536 114.608 21.176 113.168 20.792C111.68 20.432 110.456 20.06 109.496 19.676C108.56 19.292 107.744 18.704 107.048 17.912C106.376 17.12 106.04 16.052 106.04 14.708C106.04 13.604 106.352 12.596 106.976 11.684C107.624 10.772 108.536 10.052 109.712 9.524C110.912 8.996 112.316 8.732 113.924 8.732C116.3 8.732 118.196 9.332 119.612 10.532C121.028 11.708 121.808 13.304 121.952 15.32H117.128C117.056 14.528 116.72 13.904 116.12 13.448C115.544 12.968 114.764 12.728 113.78 12.728C112.868 12.728 112.16 12.896 111.656 13.232C111.176 13.568 110.936 14.036 110.936 14.636C110.936 15.308 111.272 15.824 111.944 16.184C112.616 16.52 113.66 16.868 115.076 17.228C116.516 17.588 117.704 17.96 118.64 18.344C119.576 18.728 120.38 19.328 121.052 20.144C121.748 20.936 122.108 21.992 122.132 23.312C122.132 24.464 121.808 25.496 121.16 26.408C120.536 27.32 119.624 28.04 118.424 28.568C117.248 29.072 115.868 29.324 114.284 29.324ZM137.501 8.768C139.013 8.768 140.357 9.104 141.533 9.776C142.709 10.424 143.621 11.396 144.269 12.692C144.941 13.964 145.277 15.5 145.277 17.3V29H140.237V17.984C140.237 16.4 139.841 15.188 139.049 14.348C138.257 13.484 137.177 13.052 135.809 13.052C134.417 13.052 133.313 13.484 132.497 14.348C131.705 15.188 131.309 16.4 131.309 17.984V29H126.269V2.36H131.309V11.54C131.957 10.676 132.821 10.004 133.901 9.524C134.981 9.02 136.181 8.768 137.501 8.768ZM166.28 29.324C164.648 29.324 163.184 29.036 161.888 28.46C160.592 27.86 159.56 27.056 158.792 26.048C158.048 25.04 157.64 23.924 157.568 22.7H162.644C162.74 23.468 163.112 24.104 163.76 24.608C164.432 25.112 165.26 25.364 166.244 25.364C167.204 25.364 167.948 25.172 168.476 24.788C169.028 24.404 169.304 23.912 169.304 23.312C169.304 22.664 168.968 22.184 168.296 21.872C167.648 21.536 166.604 21.176 165.164 20.792C163.676 20.432 162.452 20.06 161.492 19.676C160.556 19.292 159.74 18.704 159.044 17.912C158.372 17.12 158.036 16.052 158.036 14.708C158.036 13.604 158.348 12.596 158.972 11.684C159.62 10.772 160.532 10.052 161.708 9.524C162.908 8.996 164.312 8.732 165.92 8.732C168.296 8.732 170.192 9.332 171.608 10.532C173.024 11.708 173.804 13.304 173.948 15.32H169.124C169.052 14.528 168.716 13.904 168.116 13.448C167.54 12.968 166.76 12.728 165.776 12.728C164.864 12.728 164.156 12.896 163.652 13.232C163.172 13.568 162.932 14.036 162.932 14.636C162.932 15.308 163.268 15.824 163.94 16.184C164.612 16.52 165.656 16.868 167.072 17.228C168.512 17.588 169.7 17.96 170.636 18.344C171.572 18.728 172.376 19.328 173.048 20.144C173.744 20.936 174.104 21.992 174.128 23.312C174.128 24.464 173.804 25.496 173.156 26.408C172.532 27.32 171.62 28.04 170.42 28.568C169.244 29.072 167.864 29.324 166.28 29.324ZM187.121 29.324C185.201 29.324 183.473 28.904 181.937 28.064C180.401 27.2 179.189 25.988 178.301 24.428C177.437 22.868 177.005 21.068 177.005 19.028C177.005 16.988 177.449 15.188 178.337 13.628C179.249 12.068 180.485 10.868 182.045 10.028C183.605 9.164 185.345 8.732 187.265 8.732C189.185 8.732 190.925 9.164 192.485 10.028C194.045 10.868 195.269 12.068 196.157 13.628C197.069 15.188 197.525 16.988 197.525 19.028C197.525 21.068 197.057 22.868 196.121 24.428C195.209 25.988 193.961 27.2 192.377 28.064C190.817 28.904 189.065 29.324 187.121 29.324ZM187.121 24.932C188.033 24.932 188.885 24.716 189.677 24.284C190.493 23.828 191.141 23.156 191.621 22.268C192.101 21.38 192.341 20.3 192.341 19.028C192.341 17.132 191.837 15.68 190.829 14.672C189.845 13.64 188.633 13.124 187.193 13.124C185.753 13.124 184.541 13.64 183.557 14.672C182.597 15.68 182.117 17.132 182.117 19.028C182.117 20.924 182.585 22.388 183.521 23.42C184.481 24.428 185.681 24.932 187.121 24.932ZM210.366 13.196H206.874V29H201.762V13.196H199.494V9.056H201.762V8.048C201.762 5.6 202.458 3.8 203.85 2.648C205.242 1.496 207.342 0.955999 210.15 1.028V5.276C208.926 5.252 208.074 5.456 207.594 5.888C207.114 6.32 206.874 7.1 206.874 8.228V9.056H210.366V13.196ZM219.5 13.196V22.844C219.5 23.516 219.656 24.008 219.968 24.32C220.304 24.608 220.856 24.752 221.624 24.752H223.964V29H220.796C216.548 29 214.424 26.936 214.424 22.808V13.196H212.048V9.056H214.424V4.124H219.5V9.056H223.964V13.196H219.5Z" fill="#BCDD64"/>
</svg>
