<svg xmlns="http://www.w3.org/2000/svg" width="20" height="20" viewBox="0 0 20 20" fill="none">
  <path fill-rule="evenodd" clip-rule="evenodd" d="M7.05197 3.7085C7.05197 2.51763 8.01736 1.55225 9.20822 1.55225H10.7916C11.9824 1.55225 12.9478 2.51763 12.9478 3.7085V4.50016C12.9478 4.50019 12.9478 4.50022 12.9478 4.50024H7.05197C7.05197 4.50022 7.05197 4.50019 7.05197 4.50016V3.7085ZM5.61447 4.50024C5.61447 4.50022 5.61447 4.50019 5.61447 4.50016V3.7085C5.61447 1.72372 7.22345 0.114746 9.20822 0.114746H10.7916C12.7763 0.114746 14.3853 1.72372 14.3853 3.7085V4.50016C14.3853 4.50019 14.3853 4.50022 14.3853 4.50024H15.3332C17.4503 4.50024 19.1666 6.21649 19.1666 8.33358V15.3336C19.1666 17.4507 17.4503 19.1669 15.3333 19.1669H4.66659C2.5495 19.1669 0.833252 17.4507 0.833252 15.3336V8.33358C0.833252 6.21649 2.54949 4.50024 4.66659 4.50024H5.61447ZM9.99983 8.36493C10.3968 8.36493 10.7186 8.68672 10.7186 9.08368V11.1149H12.7498C13.1468 11.1149 13.4686 11.4367 13.4686 11.8337C13.4686 12.2306 13.1468 12.5524 12.7498 12.5524H10.7186V14.5837C10.7186 14.9806 10.3968 15.3024 9.99983 15.3024C9.60287 15.3024 9.28108 14.9806 9.28108 14.5837V12.5524H7.24983C6.85287 12.5524 6.53108 12.2306 6.53108 11.8337C6.53108 11.4367 6.85287 11.1149 7.24983 11.1149H9.28108V9.08368C9.28108 8.68672 9.60287 8.36493 9.99983 8.36493Z" fill="white"/>
</svg>