<svg width="20" height="21" viewBox="0 0 20 21" fill="none" xmlns="http://www.w3.org/2000/svg">
<path d="M18 18.75C18 19.8546 17.1046 20.75 16 20.75H4C2.89543 20.75 2 19.8546 2 18.75V10.25H18V18.75ZM10.084 11.7588C9.99449 11.7397 9.901 11.7516 9.81934 11.792C9.73764 11.8324 9.67257 11.8989 9.63574 11.9805L8.03516 15.4805C8.00792 15.5395 7.99596 15.6044 8.00098 15.6689C8.00604 15.7335 8.02733 15.7962 8.06348 15.8506C8.0996 15.905 8.14959 15.9494 8.20801 15.9805C8.26659 16.0116 8.33267 16.0282 8.39941 16.0283H9.59961V18.3613C9.59943 18.4504 9.63096 18.5371 9.68848 18.6064C9.74601 18.6757 9.82646 18.7235 9.91602 18.7422C9.94379 18.7467 9.97185 18.7493 10 18.75C10.0769 18.7498 10.1522 18.7282 10.2168 18.6875C10.2814 18.6468 10.3327 18.5887 10.3643 18.5205L11.9648 15.0215C11.9922 14.9623 12.004 14.8967 11.999 14.832C11.994 14.7677 11.9724 14.7056 11.9365 14.6514C11.9004 14.597 11.8505 14.5516 11.792 14.5205C11.7334 14.4894 11.6673 14.4728 11.6006 14.4727H10.4004V12.1396C10.4005 12.0508 10.3689 11.9647 10.3115 11.8955C10.254 11.8261 10.1736 11.7775 10.084 11.7588ZM14 0C15.5188 0 16.75 1.23122 16.75 2.75C16.75 3.10279 16.6835 3.44007 16.5625 3.75H18C19.1046 3.75 20 4.64543 20 5.75V6.75C20 7.85457 19.1046 8.75 18 8.75H2C0.895431 8.75 0 7.85457 0 6.75V5.75C0 4.64543 0.895431 3.75 2 3.75H3.4375C3.31646 3.44007 3.25 3.10279 3.25 2.75C3.25 1.23122 4.48122 0 6 0C7.67947 0 9.15537 0.871939 10 2.1875C10.8446 0.871938 12.3205 0 14 0ZM6 1.5C5.30964 1.5 4.75 2.05964 4.75 2.75C4.75 3.1589 4.94646 3.52194 5.25 3.75H9.09277C8.67095 2.44444 7.44597 1.5 6 1.5ZM14 1.5C12.554 1.5 11.329 2.44444 10.9072 3.75H14.75C15.0535 3.52194 15.25 3.1589 15.25 2.75C15.25 2.05964 14.6904 1.5 14 1.5Z" fill="#FED376"/>
</svg>
